<svg xmlns="http://www.w3.org/2000/svg" xmlns:xlink="http://www.w3.org/1999/xlink" viewBox="0 0 286.54 52.58"><defs><style>.cls-1{fill:#303031;}.cls-2{fill:url(#New_Gradient_Swatch_3);}</style><linearGradient id="New_Gradient_Swatch_3" y1="26.29" x2="46.93" y2="26.29" gradientUnits="userSpaceOnUse"><stop offset="0" stop-color="#738696"/><stop offset="0.33" stop-color="#4f5c67"/><stop offset="1"/></linearGradient></defs><title>CheMondis_logo</title><g id="Layer_2" data-name="Layer 2"><g id="Layer_1-2" data-name="Layer 1"><path class="cls-1" d="M87.48,31.09C86.37,37.38,81.87,42,74.16,42c-8.57,0-14.79-6.6-14.79-15.9s6.22-15.9,14.79-15.9c7.71,0,12.21,4.59,13.32,10.8h-8a5.18,5.18,0,0,0-5.31-3.68c-4.2,0-6.65,3.68-6.65,8.78s2.45,8.79,6.65,8.79a5.21,5.21,0,0,0,5.31-3.77Z"/><path class="cls-1" d="M90.61,8.85h7.88v12a8,8,0,0,1,6-2.49c5,0,8,3.3,8,8.27V41.46h-7.88V28.6c0-1.92-.9-3.25-2.92-3.25a3.18,3.18,0,0,0-3.21,2.48V41.46H90.61Z"/><path class="cls-1" d="M137.41,33.58c-.82,5.23-4.67,8.4-10.59,8.4-6.89,0-11.48-4.8-11.48-11.79s4.8-11.83,11.36-11.83c6.9,0,10.79,4.63,10.79,11.36v2H122.92c.26,2.7,1.68,4.16,3.9,4.16a3.09,3.09,0,0,0,3.3-2.27ZM126.7,24.49c-1.89,0-3.13,1.2-3.65,3.3h6.86c-.17-1.84-1.29-3.3-3.21-3.3"/><polygon class="cls-1" points="154.65 41.46 148.22 23.16 148.22 41.46 140.72 41.46 140.72 10.69 150.53 10.69 157.3 29.85 164.03 10.69 173.8 10.69 173.8 41.46 166.26 41.46 166.26 23.16 159.88 41.46 154.65 41.46"/><path class="cls-1" d="M199.74,30.15c0,7-4.72,11.83-11.53,11.83s-11.57-4.85-11.57-11.83,4.71-11.79,11.57-11.79,11.53,4.8,11.53,11.79m-15.3,0c0,3.12,1.32,5.31,3.77,5.31S192,33.27,192,30.15s-1.37-5.27-3.77-5.27-3.77,2.18-3.77,5.27"/><path class="cls-1" d="M202.57,18.88h7.89v2a8,8,0,0,1,6-2.49c5,0,8,3.3,8,8.27V41.46h-7.89V28.6c0-1.92-.9-3.25-2.91-3.25a3.17,3.17,0,0,0-3.21,2.49V41.46h-7.89Z"/><path class="cls-1" d="M243,39.66A7.92,7.92,0,0,1,237.38,42c-6.52,0-10.07-5.28-10.07-11.83s3.55-11.79,10.07-11.79A8,8,0,0,1,243,20.72V8.85h7.84V41.46H243Zm0-12.47a3.79,3.79,0,0,0-3.48-2.1c-2.69,0-4.28,2.19-4.28,5.06s1.59,5.1,4.28,5.1a3.75,3.75,0,0,0,3.48-2.1Z"/><path class="cls-1" d="M259.09,8.55a4.23,4.23,0,1,1,0,8.44,4.22,4.22,0,1,1,0-8.44m4,32.91h-7.89V18.88h7.89Z"/><path class="cls-1" d="M273.73,34.48a2.7,2.7,0,0,0,2.87,2c1.29,0,2.27-.52,2.27-1.59,0-.81-.6-1.11-1.76-1.37l-4.36-.94c-3.82-.73-6.22-2.57-6.22-6.56,0-4.8,4.29-7.63,9.56-7.63,6.17,0,9.59,2.92,10.24,7.38H279c-.21-1-.9-1.81-2.7-1.81-1.16,0-2.14.52-2.14,1.46,0,.73.51,1.07,1.54,1.29l4.5,1.07c4.08.94,6.3,3.13,6.3,6.77,0,4.8-4.37,7.46-9.85,7.46-5.74,0-9.95-2.62-10.63-7.5Z"/><path class="cls-2" d="M42.5,31.81V20.74a5.11,5.11,0,1,0-4.74-8.18L28.21,7a4.92,4.92,0,0,0,.38-1.93A5.11,5.11,0,1,0,18.75,7L9.16,12.56a5.11,5.11,0,1,0-4.73,8.18V31.81A5.11,5.11,0,1,0,9.15,40l9.59,5.54a5,5,0,0,0-.38,1.93,5.11,5.11,0,1,0,9.84-1.93L37.78,40a5.11,5.11,0,1,0,4.72-8.19Z"/></g></g></svg>